<svg xmlns="http://www.w3.org/2000/svg" version="1.1" viewBox="126.45 203.35 386.49 306.87">
  <defs>
    <style>
      .cls-1 {
        font-family: ArialMT, Arial;
        font-size: 18px;
      }

      .cls-1, .cls-2 {
        fill: #231f20;
      }

      .cls-2, .cls-3, .cls-4, .cls-5, .cls-6, .cls-7 {
        stroke: #231f20;
        stroke-miterlimit: 10;
      }

      .cls-3 {
        stroke-width: 2.5px;
      }

      .cls-3, .cls-4, .cls-5, .cls-6, .cls-7 {
        fill: none;
      }

      .cls-4, .cls-7 {
        stroke-width: 1.3px;
      }

      .cls-6, .cls-8 {
        opacity: .99;
      }

      .cls-8 {
        fill: #fff;
      }

      .cls-7 {
        stroke-dasharray: 4.94 4.94;
      }

      .cls-9 {
        fill: #bcbec0;
      }
    </style>
  </defs>
  <!-- Generator: Adobe Illustrator 28.6.0, SVG Export Plug-In . SVG Version: 1.2.0 Build 709)  -->
  <g>
    <g id="Layer_1">
      <path class="cls-6" d="M352.5,373.67h60.72c0,3.31-.27,6.62-.81,9.88s-1.34,6.48-2.41,9.62l-57.51-19.5Z"/>
      <path class="cls-8" d="M351.89,374.09l60.7-1.54c.01.51.02,1.02.02,1.54,0,6.9-1.18,13.75-3.48,20.25l-57.25-20.25Z"/>
      <g>
        <rect class="cls-9" x="204.55" y="251" width="185.45" height="60.54"/>
        <polygon class="cls-9" points="204.77 311.54 390.23 251 390.23 372.07 204.77 311.54"/>
      </g>
      <rect class="cls-3" x="205" y="251" width="185" height="257.97"/>
      <g>
        <line class="cls-5" x1="297.5" y1="373.5" x2="467" y2="373.5"/>
        <line class="cls-5" x1="467" y1="373.5" x2="459.77" y2="370.36"/>
        <line class="cls-5" x1="459.66" y1="376.64" x2="467" y2="373.5"/>
      </g>
      <text class="cls-1" transform="translate(454.35 366.67)"><tspan x="0" y="0">x</tspan></text>
      <g>
        <line class="cls-5" x1="297.5" y1="373.5" x2="297.5" y2="204"/>
        <line class="cls-5" x1="297.5" y1="204" x2="294.36" y2="211.23"/>
        <line class="cls-5" x1="300.64" y1="211.34" x2="297.5" y2="204"/>
      </g>
      <text class="cls-1" transform="translate(303.38 219.85)"><tspan x="0" y="0">y</tspan></text>
      <circle class="cls-2" cx="224.54" cy="489.43" r="3.44"/>
      <circle class="cls-2" cx="370.46" cy="489.43" r="3.44"/>
      <circle class="cls-2" cx="297.5" cy="489.43" r="3.44"/>
      <circle class="cls-2" cx="333.98" cy="489.43" r="3.44"/>
      <circle class="cls-2" cx="260.17" cy="489.43" r="3.44"/>
      <circle class="cls-2" cx="224.54" cy="270.54" r="3.44"/>
      <circle class="cls-2" cx="370.46" cy="270.54" r="3.44"/>
      <circle class="cls-2" cx="297.5" cy="270.54" r="3.44"/>
      <circle class="cls-2" cx="333.98" cy="270.54" r="3.44"/>
      <circle class="cls-2" cx="260.17" cy="270.54" r="3.44"/>
      <g>
        <circle class="cls-2" cx="224.54" cy="270.54" r="3.44"/>
        <circle class="cls-2" cx="224.54" cy="416.46" r="3.44"/>
        <circle class="cls-2" cx="224.54" cy="343.5" r="3.44"/>
        <circle class="cls-2" cx="224.54" cy="379.98" r="3.44"/>
        <circle class="cls-2" cx="224.54" cy="306.17" r="3.44"/>
      </g>
      <circle class="cls-2" cx="224.54" cy="452.95" r="3.44"/>
      <g>
        <circle class="cls-2" cx="370.46" cy="270.54" r="3.44"/>
        <circle class="cls-2" cx="370.46" cy="416.46" r="3.44"/>
        <circle class="cls-2" cx="370.46" cy="343.5" r="3.44"/>
        <circle class="cls-2" cx="370.46" cy="379.98" r="3.44"/>
        <circle class="cls-2" cx="370.46" cy="306.17" r="3.44"/>
      </g>
      <circle class="cls-2" cx="370.46" cy="452.95" r="3.44"/>
      <g>
        <line class="cls-4" x1="127.1" y1="300.53" x2="129.48" y2="301.31"/>
        <line class="cls-7" x1="134.18" y1="302.84" x2="470.05" y2="412.72"/>
        <line class="cls-4" x1="472.4" y1="413.49" x2="474.78" y2="414.26"/>
      </g>
      <text class="cls-1" transform="translate(416.39 390.36)"><tspan x="0" y="0">θ</tspan></text>
      <text class="cls-1" transform="translate(477.93 423.29)"><tspan x="0" y="0">N.A.</tspan></text>
    </g>
  </g>
</svg>